Coordinates
version=1
nRows=12
nColumns=33
inDegrees=yes

Units are S.I. units (second, meters, Newtons, ...)
Angles are in degrees.

endheader
time	ground_thorax_rot_x	ground_thorax_rot_y	ground_thorax_rot_z	ground_thorax_tx	ground_thorax_ty	ground_thorax_tz	clav_prot_r	clav_elev_r	scapula_abduction_r	scapula_elevation_r	scapula_upward_rot_r	scapula_winging_r	shoulder_elv_r	plane_of_elev_r	axial_rot_r	elbow_flexion_r	pro_sup_r	wrist_flex_r	wrist_dev_r	clav_prot_l	clav_elev_l	scapula_abduction_l	scapula_elevation_l	scapula_upward_rot_l	scapula_winging_l	shoulder_elv_l	plane_of_elev_l	axial_rot_l	elbow_flexion_l	pro_sup_l	wrist_flex_l	wrist_dev_l
      2.40000000	    -41.42735303	      0.06568342	     -0.24544324	   -108.13896475	    898.01541397	     -6.15881588	     -1.63121792	    -45.00000000	     45.00000000	    -45.00000000	     28.86176938	   2051.95900950	     73.06597503	     22.23561246	   -179.99999979	    724.56141461	    283.03471705	     23.29693726	     10.34251706	     16.53120887	     41.82120015	    -45.00000000	    -45.00000000	    -33.36668696	   -632.41076859	  -3527.04967586	     22.11938236	    -36.16845137	   -347.68314884	     35.07091065	      6.63380544	    -22.33738606
      2.41000000	    -41.48168651	      0.57822185	     -0.83217940	   -104.41103530	    896.32186420	     -6.08710685	     -2.32726721	    -45.00000000	     45.00000000	    -45.00000000	     30.59504855	   2051.92870591	     72.70473120	     22.25951720	   -179.99999979	    724.82185606	    279.82094264	     23.09369458	     10.90276803	     16.46933927	     41.85739337	    -45.00000000	    -45.00000000	    -32.28205499	   -632.97824652	  -3526.97658810	     22.02453484	    -35.61163427	   -348.02494563	     31.60031426	      7.33056485	    -22.39504544
      2.42000000	    -41.54157547	      0.78282608	     -1.06814250	   -100.60397321	    894.29178128	     -5.99387682	     -2.71325594	    -45.00000000	     45.00000000	    -45.00000000	     31.54457313	   2051.90163232	     72.33850165	     22.28606647	   -179.99999979	    725.10485129	    276.04543309	     22.88319787	     11.44216280	     16.18136058	     41.95871536	    -45.00000000	    -45.00000000	    -31.31617497	   -633.19863268	  -3527.25983172	     22.17800411	    -35.12967604	   -348.43780292	     27.50684989	      8.14023184	    -22.37036863
      2.43000000	    -41.59410474	      0.23315419	     -0.48522001	    -96.72260319	    891.94184484	     -5.88023717	     -2.66241615	    -45.00000000	     45.00000000	    -45.00000000	     31.37578555	   2052.10451648	     72.06785477	     22.02256782	   -179.99999979	    725.13417977	    273.04698316	     22.32789152	     11.75825806	     16.60520807	     42.32676378	    -45.00000000	    -45.00000000	    -31.27816513	   -633.39248989	  -3527.47233087	     22.19450051	    -35.36497596	   -348.62243506	     24.46867856	      8.52246781	    -22.31906163
      2.44000000	    -41.64811562	      0.12435943	     -0.43179416	    -92.76516872	    889.28914649	     -5.74873570	     -2.86091100	    -45.00000000	     45.00000000	    -45.00000000	     31.72265720	   2052.10075049	     71.56657017	     21.95300180	   -179.99999979	    725.28236507	    269.87886412	     22.00339717	     12.12267729	     16.51739715	     42.42825810	    -45.00000000	    -45.00000000	    -30.66052707	   -633.76506069	  -3527.70642981	     22.14051280	    -35.03632069	   -348.87693238	     21.45207236	      9.10438403	    -22.21880196
      2.45000000	    -41.64604351	      0.41092832	     -0.69748034	    -88.73958300	    886.36043272	     -5.59960550	     -3.39191434	    -45.00000000	     45.00000000	    -45.00000000	     32.81580052	   2051.96744030	     71.11717184	     21.94647921	   -179.99999979	    725.64117244	    266.14426081	     21.57431375	     12.61689756	     16.54081047	     42.53584389	    -45.00000000	    -45.00000000	    -29.92491396	   -634.24757663	  -3527.91705053	     22.26586548	    -34.65992144	   -349.14019578	     18.14455916	      9.75216761	    -22.02486179
      2.46000000	    -41.64669475	      0.94702576	     -1.33232074	    -84.65443353	    883.18156261	     -5.43642943	     -4.22963145	    -45.00000000	     45.00000000	    -45.00000000	     34.07365918	   2051.81304929	     70.52710640	     21.97141720	   -179.99999979	    726.20561709	    259.91297081	     21.10356287	     13.34332228	     15.61331078	     42.71716179	    -45.00000000	    -45.00000000	    -28.61943441	   -634.57515787	  -3528.44647885	     22.54806520	    -33.61486879	   -349.64398035	     13.27101694	     11.07773584	    -21.70304227
      2.47000000	    -41.65436958	      0.47634773	     -0.85104890	    -80.54367236	    879.79405954	     -5.24809306	     -3.95748145	    -45.00000000	     45.00000000	    -45.00000000	     33.47363679	   2051.85845142	     69.94421040	     21.89060675	   -179.99999979	    726.41685589	    256.11402827	     20.51690694	     13.67540100	     16.34940221	     42.76405406	    -45.00000000	    -45.00000000	    -28.97338968	   -635.15738686	  -3528.39836056	     22.43342126	    -34.30793864	   -349.64899484	     10.91188291	     11.17527869	    -21.44550796
      2.48000000	    -41.71826463	      0.23829690	     -0.59259222	    -76.42058994	    876.21869483	     -5.04255410	     -4.19856001	    -45.00000000	     45.00000000	    -45.00000000	     33.69284871	   2051.71144207	     69.43441929	     21.76075832	   -179.99999979	    726.68695460	    252.42946043	     20.02622813	     13.96538331	     16.52305480	     42.92820900	    -45.00000000	    -45.00000000	    -28.69214295	   -635.61170311	  -3528.74595925	     22.51093566	    -33.95810348	   -349.81559019	      8.86850996	     11.49928106	    -21.17314298
      2.49000000	    -41.72770973	      0.00036935	     -0.41792941	    -72.29401998	    872.46944055	     -4.82344469	     -4.35223502	    -45.00000000	     45.00000000	    -45.00000000	     33.75871148	   2051.61175504	     68.82734828	     21.65714494	   -179.99999979	    726.93415476	    249.06482124	     19.61604577	     14.20573170	     16.68467065	     43.08206708	    -45.00000000	    -45.00000000	    -28.54319840	   -636.03031471	  -3529.09406387	     22.69468731	    -33.51607280	   -349.96976573	      7.28510405	     11.81388572	    -20.91789515
      2.50000000	    -41.72738447	      0.47226900	     -0.98395409	    -68.15949242	    868.55173466	     -4.60851604	     -5.06338273	    -45.00000000	     45.00000000	    -45.00000000	     34.50322346	   2051.37999590	     67.97607740	     21.75990992	   -179.99999979	    727.38684099	    244.89211906	     19.14497262	     14.58271388	     16.27936370	     43.10533807	    -45.00000000	    -45.00000000	    -27.64422600	   -636.64723544	  -3529.41168319	     22.89221055	    -32.51792412	   -350.19567015	      5.63687187	     12.37372486	    -20.53440045
      2.51000000	    -41.73142258	      0.33210981	     -0.87242205	    -64.03021923	    864.48886225	     -4.39370432	     -5.28992412	    -45.00000000	     45.00000000	    -45.00000000	     34.59297010	   2051.21212572	     67.31705572	     21.65373078	   -179.99999979	    727.66921721	    241.10728899	     18.62432675	     14.79909138	     16.33008503	     43.25142886	    -45.00000000	    -45.00000000	    -27.52629594	   -637.18288136	  -3529.69533515	     23.07125471	    -31.94567011	   -350.32915403	      4.53309357	     12.71317608	    -20.27006846
